# xmcd
#
# Track frame offsets: 
#        150
#        7848
#        27996
#        43569
#        59442
#        74940
#        79263
#        100086
#        119034
#        138507
#        158880
#        178503
#        193701
#        215349
#        234747
#        242370
#        259218
#        278766
#
# Disc length: 4055 seconds
#
# Revision: 0
# Processed by: cddbd v1.5.2PL0 Copyright (c) Steve Scherf et al.
# Submitted via: ExactAudioCopy v1.0b1
#
DISCID=050fd512
DTITLE=Substantial - Sacrificial Lambs (The Prequel To Sacrifice) 
DYEAR=2006
DGENRE=Hip-Hop
TTITLE0=Introduction
TTITLE1=Some More
TTITLE2=Child's Play
TTITLE3=What I Love
TTITLE4=I Own You
TTITLE5=Jam Session (Interlude)
TTITLE6=BBQ (feat. rnb of Soul Dept.)
TTITLE7=My MZA My Man
TTITLE8=Opium
TTITLE9=Let Me Stay
TTITLE10=Big Foot (feat. Fresh Daily)
TTITLE11=Dr. Thinkinriem
TTITLE12=Hammered (feat. Mr. SOS)
TTITLE13=Fluid (feat. G.C. of Soul Mafia)
TTITLE14=Renaissance (Interlude)
TTITLE15=The Starving Artist
TTITLE16=What You Want
TTITLE17=Sacrifice (snippets)
EXTD=
EXTT0=
EXTT1=
EXTT2=
EXTT3=
EXTT4=
EXTT5=
EXTT6=
EXTT7=
EXTT8=
EXTT9=
EXTT10=
EXTT11=
EXTT12=
EXTT13=
EXTT14=
EXTT15=
EXTT16=
EXTT17=
PLAYORDER=
